<svg id="visual" viewBox="0 0 900 600" width="900" height="600" xmlns="http://www.w3.org/2000/svg" xmlns:xlink="http://www.w3.org/1999/xlink" version="1.1"><rect x="0" y="0" width="900" height="600" fill="#fdffff"></rect><path d="M0 412L21.5 415.7C43 419.3 86 426.7 128.8 417C171.7 407.3 214.3 380.7 257.2 372.2C300 363.7 343 373.3 385.8 381.5C428.7 389.7 471.3 396.3 514.2 395.2C557 394 600 385 642.8 379.8C685.7 374.7 728.3 373.3 771.2 382.7C814 392 857 412 878.5 422L900 432L900 601L878.5 601C857 601 814 601 771.2 601C728.3 601 685.7 601 642.8 601C600 601 557 601 514.2 601C471.3 601 428.7 601 385.8 601C343 601 300 601 257.2 601C214.3 601 171.7 601 128.8 601C86 601 43 601 21.5 601L0 601Z" fill="#215971"></path><path d="M0 471L21.5 459.5C43 448 86 425 128.8 414.8C171.7 404.7 214.3 407.3 257.2 417C300 426.7 343 443.3 385.8 445.3C428.7 447.3 471.3 434.7 514.2 430.5C557 426.3 600 430.7 642.8 433.7C685.7 436.7 728.3 438.3 771.2 432.7C814 427 857 414 878.5 407.5L900 401L900 601L878.5 601C857 601 814 601 771.2 601C728.3 601 685.7 601 642.8 601C600 601 557 601 514.2 601C471.3 601 428.7 601 385.8 601C343 601 300 601 257.2 601C214.3 601 171.7 601 128.8 601C86 601 43 601 21.5 601L0 601Z" fill="#1c4f68"></path><path d="M0 501L21.5 498.3C43 495.7 86 490.3 128.8 483.8C171.7 477.3 214.3 469.7 257.2 471.5C300 473.3 343 484.7 385.8 485.8C428.7 487 471.3 478 514.2 473.7C557 469.3 600 469.7 642.8 465.2C685.7 460.7 728.3 451.3 771.2 449.3C814 447.3 857 452.7 878.5 455.3L900 458L900 601L878.5 601C857 601 814 601 771.2 601C728.3 601 685.7 601 642.8 601C600 601 557 601 514.2 601C471.3 601 428.7 601 385.8 601C343 601 300 601 257.2 601C214.3 601 171.7 601 128.8 601C86 601 43 601 21.5 601L0 601Z" fill="#18465f"></path><path d="M0 513L21.5 508.7C43 504.3 86 495.7 128.8 495.8C171.7 496 214.3 505 257.2 511.2C300 517.3 343 520.7 385.8 515.5C428.7 510.3 471.3 496.7 514.2 495.8C557 495 600 507 642.8 512.5C685.7 518 728.3 517 771.2 510.8C814 504.7 857 493.3 878.5 487.7L900 482L900 601L878.5 601C857 601 814 601 771.2 601C728.3 601 685.7 601 642.8 601C600 601 557 601 514.2 601C471.3 601 428.7 601 385.8 601C343 601 300 601 257.2 601C214.3 601 171.7 601 128.8 601C86 601 43 601 21.5 601L0 601Z" fill="#143c56"></path><path d="M0 537L21.5 542.7C43 548.3 86 559.7 128.8 562C171.7 564.3 214.3 557.7 257.2 555.5C300 553.3 343 555.7 385.8 556.7C428.7 557.7 471.3 557.3 514.2 557.3C557 557.3 600 557.7 642.8 558.3C685.7 559 728.3 560 771.2 560C814 560 857 559 878.5 558.5L900 558L900 601L878.5 601C857 601 814 601 771.2 601C728.3 601 685.7 601 642.8 601C600 601 557 601 514.2 601C471.3 601 428.7 601 385.8 601C343 601 300 601 257.2 601C214.3 601 171.7 601 128.8 601C86 601 43 601 21.5 601L0 601Z" fill="#11334d"></path></svg>